<svg xmlns="http://www.w3.org/2000/svg" viewBox="-150 -150 3450 3075" font-family="Georgia, serif">
<rect x="-150" y="-150" width="3450" height="3075" fill="#f0e3c2"/>
<g id="terrain">
<polygon points="150.0,0.0 300.0,75.0 300.0,225.0 150.0,300.0 0.0,225.0 0.0,75.0" fill="#1f5a85"/>
<polygon points="300.0,225.0 450.0,300.0 450.0,450.0 300.0,525.0 150.0,450.0 150.0,300.0" fill="#1f5a85"/>
<polygon points="150.0,450.0 300.0,525.0 300.0,675.0 150.0,750.0 0.0,675.0 0.0,525.0" fill="#1f5a85"/>
<polygon points="300.0,675.0 450.0,750.0 450.0,900.0 300.0,975.0 150.0,900.0 150.0,750.0" fill="#1f5a85"/>
<polygon points="150.0,900.0 300.0,975.0 300.0,1125.0 150.0,1200.0 0.0,1125.0 0.0,975.0" fill="#1f5a85"/>
<polygon points="300.0,1125.0 450.0,1200.0 450.0,1350.0 300.0,1425.0 150.0,1350.0 150.0,1200.0" fill="#1f5a85"/>
<polygon points="150.0,1350.0 300.0,1425.0 300.0,1575.0 150.0,1650.0 0.0,1575.0 0.0,1425.0" fill="#1f5a85"/>
<polygon points="300.0,1575.0 450.0,1650.0 450.0,1800.0 300.0,1875.0 150.0,1800.0 150.0,1650.0" fill="#1f5a85"/>
<polygon points="150.0,1800.0 300.0,1875.0 300.0,2025.0 150.0,2100.0 0.0,2025.0 0.0,1875.0" fill="#1f5a85"/>
<polygon points="300.0,2025.0 450.0,2100.0 450.0,2250.0 300.0,2325.0 150.0,2250.0 150.0,2100.0" fill="#1f5a85"/>
<polygon points="150.0,2250.0 300.0,2325.0 300.0,2475.0 150.0,2550.0 0.0,2475.0 0.0,2325.0" fill="#1f5a85"/>
<polygon points="300.0,2475.0 450.0,2550.0 450.0,2700.0 300.0,2775.0 150.0,2700.0 150.0,2550.0" fill="#1f5a85"/>
<polygon points="450.0,0.0 600.0,75.0 600.0,225.0 450.0,300.0 300.0,225.0 300.0,75.0" fill="#1f5a85"/>
<polygon points="600.0,225.0 750.0,300.0 750.0,450.0 600.0,525.0 450.0,450.0 450.0,300.0" fill="#a8c878"/>
<polygon points="450.0,450.0 600.0,525.0 600.0,675.0 450.0,750.0 300.0,675.0 300.0,525.0" fill="#1f5a85"/>
<polygon points="600.0,675.0 750.0,750.0 750.0,900.0 600.0,975.0 450.0,900.0 450.0,750.0" fill="#a8c878"/>
<polygon points="450.0,900.0 600.0,975.0 600.0,1125.0 450.0,1200.0 300.0,1125.0 300.0,975.0" fill="#1f5a85"/>
<polygon points="600.0,1125.0 750.0,1200.0 750.0,1350.0 600.0,1425.0 450.0,1350.0 450.0,1200.0" fill="#1f5a85"/>
<polygon points="450.0,1350.0 600.0,1425.0 600.0,1575.0 450.0,1650.0 300.0,1575.0 300.0,1425.0" fill="#1f5a85"/>
<polygon points="600.0,1575.0 750.0,1650.0 750.0,1800.0 600.0,1875.0 450.0,1800.0 450.0,1650.0" fill="#1f5a85"/>
<polygon points="450.0,1800.0 600.0,1875.0 600.0,2025.0 450.0,2100.0 300.0,2025.0 300.0,1875.0" fill="#1f5a85"/>
<polygon points="600.0,2025.0 750.0,2100.0 750.0,2250.0 600.0,2325.0 450.0,2250.0 450.0,2100.0" fill="#1f5a85"/>
<polygon points="450.0,2250.0 600.0,2325.0 600.0,2475.0 450.0,2550.0 300.0,2475.0 300.0,2325.0" fill="#1f5a85"/>
<polygon points="600.0,2475.0 750.0,2550.0 750.0,2700.0 600.0,2775.0 450.0,2700.0 450.0,2550.0" fill="#1f5a85"/>
<polygon points="750.0,0.0 900.0,75.0 900.0,225.0 750.0,300.0 600.0,225.0 600.0,75.0" fill="#a8c878"/>
<polygon points="900.0,225.0 1050.0,300.0 1050.0,450.0 900.0,525.0 750.0,450.0 750.0,300.0" fill="#a8c878"/>
<polygon points="750.0,450.0 900.0,525.0 900.0,675.0 750.0,750.0 600.0,675.0 600.0,525.0" fill="#a8c878"/>
<polygon points="900.0,675.0 1050.0,750.0 1050.0,900.0 900.0,975.0 750.0,900.0 750.0,750.0" fill="#a8c878"/>
<polygon points="750.0,900.0 900.0,975.0 900.0,1125.0 750.0,1200.0 600.0,1125.0 600.0,975.0" fill="#a8c878"/>
<polygon points="900.0,1125.0 1050.0,1200.0 1050.0,1350.0 900.0,1425.0 750.0,1350.0 750.0,1200.0" fill="#4d8540"/>
<polygon points="750.0,1350.0 900.0,1425.0 900.0,1575.0 750.0,1650.0 600.0,1575.0 600.0,1425.0" fill="#1f5a85"/>
<polygon points="900.0,1575.0 1050.0,1650.0 1050.0,1800.0 900.0,1875.0 750.0,1800.0 750.0,1650.0" fill="#2d5025"/>
<polygon points="750.0,1800.0 900.0,1875.0 900.0,2025.0 750.0,2100.0 600.0,2025.0 600.0,1875.0" fill="#b08a55"/>
<polygon points="900.0,2025.0 1050.0,2100.0 1050.0,2250.0 900.0,2325.0 750.0,2250.0 750.0,2100.0" fill="#e6c87a"/>
<polygon points="750.0,2250.0 900.0,2325.0 900.0,2475.0 750.0,2550.0 600.0,2475.0 600.0,2325.0" fill="#1f5a85"/>
<polygon points="900.0,2475.0 1050.0,2550.0 1050.0,2700.0 900.0,2775.0 750.0,2700.0 750.0,2550.0" fill="#1f5a85"/>
<polygon points="1050.0,0.0 1200.0,75.0 1200.0,225.0 1050.0,300.0 900.0,225.0 900.0,75.0" fill="#a8c878"/>
<polygon points="1200.0,225.0 1350.0,300.0 1350.0,450.0 1200.0,525.0 1050.0,450.0 1050.0,300.0" fill="#a8c878"/>
<polygon points="1050.0,450.0 1200.0,525.0 1200.0,675.0 1050.0,750.0 900.0,675.0 900.0,525.0" fill="#a8c878"/>
<polygon points="1200.0,675.0 1350.0,750.0 1350.0,900.0 1200.0,975.0 1050.0,900.0 1050.0,750.0" fill="#e6c87a"/>
<polygon points="1050.0,900.0 1200.0,975.0 1200.0,1125.0 1050.0,1200.0 900.0,1125.0 900.0,975.0" fill="#a8a268"/>
<polygon points="1200.0,1125.0 1350.0,1200.0 1350.0,1350.0 1200.0,1425.0 1050.0,1350.0 1050.0,1200.0" fill="#3d7035"/>
<polygon points="1050.0,1350.0 1200.0,1425.0 1200.0,1575.0 1050.0,1650.0 900.0,1575.0 900.0,1425.0" fill="#2d5025"/>
<polygon points="1200.0,1575.0 1350.0,1650.0 1350.0,1800.0 1200.0,1875.0 1050.0,1800.0 1050.0,1650.0" fill="#a8a268"/>
<polygon points="1050.0,1800.0 1200.0,1875.0 1200.0,2025.0 1050.0,2100.0 900.0,2025.0 900.0,1875.0" fill="#a8a268"/>
<polygon points="1200.0,2025.0 1350.0,2100.0 1350.0,2250.0 1200.0,2325.0 1050.0,2250.0 1050.0,2100.0" fill="#e6c87a"/>
<polygon points="1050.0,2250.0 1200.0,2325.0 1200.0,2475.0 1050.0,2550.0 900.0,2475.0 900.0,2325.0" fill="#1f5a85"/>
<polygon points="1200.0,2475.0 1350.0,2550.0 1350.0,2700.0 1200.0,2775.0 1050.0,2700.0 1050.0,2550.0" fill="#1f5a85"/>
<polygon points="1350.0,0.0 1500.0,75.0 1500.0,225.0 1350.0,300.0 1200.0,225.0 1200.0,75.0" fill="#1f5a85"/>
<polygon points="1500.0,225.0 1650.0,300.0 1650.0,450.0 1500.0,525.0 1350.0,450.0 1350.0,300.0" fill="#1f5a85"/>
<polygon points="1350.0,450.0 1500.0,525.0 1500.0,675.0 1350.0,750.0 1200.0,675.0 1200.0,525.0" fill="#a8c878"/>
<polygon points="1500.0,675.0 1650.0,750.0 1650.0,900.0 1500.0,975.0 1350.0,900.0 1350.0,750.0" fill="#e6c87a"/>
<polygon points="1350.0,900.0 1500.0,975.0 1500.0,1125.0 1350.0,1200.0 1200.0,1125.0 1200.0,975.0" fill="#a8a268"/>
<polygon points="1500.0,1125.0 1650.0,1200.0 1650.0,1350.0 1500.0,1425.0 1350.0,1350.0 1350.0,1200.0" fill="#88ad55"/>
<polygon points="1350.0,1350.0 1500.0,1425.0 1500.0,1575.0 1350.0,1650.0 1200.0,1575.0 1200.0,1425.0" fill="#3d7035"/>
<polygon points="1500.0,1575.0 1650.0,1650.0 1650.0,1800.0 1500.0,1875.0 1350.0,1800.0 1350.0,1650.0" fill="#4d8540"/>
<polygon points="1350.0,1800.0 1500.0,1875.0 1500.0,2025.0 1350.0,2100.0 1200.0,2025.0 1200.0,1875.0" fill="#a8c878"/>
<polygon points="1500.0,2025.0 1650.0,2100.0 1650.0,2250.0 1500.0,2325.0 1350.0,2250.0 1350.0,2100.0" fill="#1f5a85"/>
<polygon points="1350.0,2250.0 1500.0,2325.0 1500.0,2475.0 1350.0,2550.0 1200.0,2475.0 1200.0,2325.0" fill="#1f5a85"/>
<polygon points="1500.0,2475.0 1650.0,2550.0 1650.0,2700.0 1500.0,2775.0 1350.0,2700.0 1350.0,2550.0" fill="#1f5a85"/>
<polygon points="1650.0,0.0 1800.0,75.0 1800.0,225.0 1650.0,300.0 1500.0,225.0 1500.0,75.0" fill="#1f5a85"/>
<polygon points="1800.0,225.0 1950.0,300.0 1950.0,450.0 1800.0,525.0 1650.0,450.0 1650.0,300.0" fill="#1f5a85"/>
<polygon points="1650.0,450.0 1800.0,525.0 1800.0,675.0 1650.0,750.0 1500.0,675.0 1500.0,525.0" fill="#1f5a85"/>
<polygon points="1800.0,675.0 1950.0,750.0 1950.0,900.0 1800.0,975.0 1650.0,900.0 1650.0,750.0" fill="#c8db7a"/>
<polygon points="1650.0,900.0 1800.0,975.0 1800.0,1125.0 1650.0,1200.0 1500.0,1125.0 1500.0,975.0" fill="#a8a268"/>
<polygon points="1800.0,1125.0 1950.0,1200.0 1950.0,1350.0 1800.0,1425.0 1650.0,1350.0 1650.0,1200.0" fill="#88ad55"/>
<polygon points="1650.0,1350.0 1800.0,1425.0 1800.0,1575.0 1650.0,1650.0 1500.0,1575.0 1500.0,1425.0" fill="#a8a268"/>
<polygon points="1800.0,1575.0 1950.0,1650.0 1950.0,1800.0 1800.0,1875.0 1650.0,1800.0 1650.0,1650.0" fill="#a8c878"/>
<polygon points="1650.0,1800.0 1800.0,1875.0 1800.0,2025.0 1650.0,2100.0 1500.0,2025.0 1500.0,1875.0" fill="#a8c878"/>
<polygon points="1800.0,2025.0 1950.0,2100.0 1950.0,2250.0 1800.0,2325.0 1650.0,2250.0 1650.0,2100.0" fill="#1f5a85"/>
<polygon points="1650.0,2250.0 1800.0,2325.0 1800.0,2475.0 1650.0,2550.0 1500.0,2475.0 1500.0,2325.0" fill="#1f5a85"/>
<polygon points="1800.0,2475.0 1950.0,2550.0 1950.0,2700.0 1800.0,2775.0 1650.0,2700.0 1650.0,2550.0" fill="#1f5a85"/>
<polygon points="1950.0,0.0 2100.0,75.0 2100.0,225.0 1950.0,300.0 1800.0,225.0 1800.0,75.0" fill="#1f5a85"/>
<polygon points="2100.0,225.0 2250.0,300.0 2250.0,450.0 2100.0,525.0 1950.0,450.0 1950.0,300.0" fill="#1f5a85"/>
<polygon points="1950.0,450.0 2100.0,525.0 2100.0,675.0 1950.0,750.0 1800.0,675.0 1800.0,525.0" fill="#1f5a85"/>
<polygon points="2100.0,675.0 2250.0,750.0 2250.0,900.0 2100.0,975.0 1950.0,900.0 1950.0,750.0" fill="#9ec870"/>
<polygon points="1950.0,900.0 2100.0,975.0 2100.0,1125.0 1950.0,1200.0 1800.0,1125.0 1800.0,975.0" fill="#9ec870"/>
<polygon points="2100.0,1125.0 2250.0,1200.0 2250.0,1350.0 2100.0,1425.0 1950.0,1350.0 1950.0,1200.0" fill="#1f5a85"/>
<polygon points="1950.0,1350.0 2100.0,1425.0 2100.0,1575.0 1950.0,1650.0 1800.0,1575.0 1800.0,1425.0" fill="#a8c878"/>
<polygon points="2100.0,1575.0 2250.0,1650.0 2250.0,1800.0 2100.0,1875.0 1950.0,1800.0 1950.0,1650.0" fill="#a8c878"/>
<polygon points="1950.0,1800.0 2100.0,1875.0 2100.0,2025.0 1950.0,2100.0 1800.0,2025.0 1800.0,1875.0" fill="#a8c878"/>
<polygon points="2100.0,2025.0 2250.0,2100.0 2250.0,2250.0 2100.0,2325.0 1950.0,2250.0 1950.0,2100.0" fill="#1f5a85"/>
<polygon points="1950.0,2250.0 2100.0,2325.0 2100.0,2475.0 1950.0,2550.0 1800.0,2475.0 1800.0,2325.0" fill="#1f5a85"/>
<polygon points="2100.0,2475.0 2250.0,2550.0 2250.0,2700.0 2100.0,2775.0 1950.0,2700.0 1950.0,2550.0" fill="#1f5a85"/>
<polygon points="2250.0,0.0 2400.0,75.0 2400.0,225.0 2250.0,300.0 2100.0,225.0 2100.0,75.0" fill="#1f5a85"/>
<polygon points="2400.0,225.0 2550.0,300.0 2550.0,450.0 2400.0,525.0 2250.0,450.0 2250.0,300.0" fill="#1f5a85"/>
<polygon points="2250.0,450.0 2400.0,525.0 2400.0,675.0 2250.0,750.0 2100.0,675.0 2100.0,525.0" fill="#1f5a85"/>
<polygon points="2400.0,675.0 2550.0,750.0 2550.0,900.0 2400.0,975.0 2250.0,900.0 2250.0,750.0" fill="#1f5a85"/>
<polygon points="2250.0,900.0 2400.0,975.0 2400.0,1125.0 2250.0,1200.0 2100.0,1125.0 2100.0,975.0" fill="#1f5a85"/>
<polygon points="2400.0,1125.0 2550.0,1200.0 2550.0,1350.0 2400.0,1425.0 2250.0,1350.0 2250.0,1200.0" fill="#1f5a85"/>
<polygon points="2250.0,1350.0 2400.0,1425.0 2400.0,1575.0 2250.0,1650.0 2100.0,1575.0 2100.0,1425.0" fill="#1f5a85"/>
<polygon points="2400.0,1575.0 2550.0,1650.0 2550.0,1800.0 2400.0,1875.0 2250.0,1800.0 2250.0,1650.0" fill="#1f5a85"/>
<polygon points="2250.0,1800.0 2400.0,1875.0 2400.0,2025.0 2250.0,2100.0 2100.0,2025.0 2100.0,1875.0" fill="#1f5a85"/>
<polygon points="2400.0,2025.0 2550.0,2100.0 2550.0,2250.0 2400.0,2325.0 2250.0,2250.0 2250.0,2100.0" fill="#1f5a85"/>
<polygon points="2250.0,2250.0 2400.0,2325.0 2400.0,2475.0 2250.0,2550.0 2100.0,2475.0 2100.0,2325.0" fill="#1f5a85"/>
<polygon points="2400.0,2475.0 2550.0,2550.0 2550.0,2700.0 2400.0,2775.0 2250.0,2700.0 2250.0,2550.0" fill="#1f5a85"/>
<polygon points="2550.0,0.0 2700.0,75.0 2700.0,225.0 2550.0,300.0 2400.0,225.0 2400.0,75.0" fill="#1f5a85"/>
<polygon points="2700.0,225.0 2850.0,300.0 2850.0,450.0 2700.0,525.0 2550.0,450.0 2550.0,300.0" fill="#1f5a85"/>
<polygon points="2550.0,450.0 2700.0,525.0 2700.0,675.0 2550.0,750.0 2400.0,675.0 2400.0,525.0" fill="#1f5a85"/>
<polygon points="2700.0,675.0 2850.0,750.0 2850.0,900.0 2700.0,975.0 2550.0,900.0 2550.0,750.0" fill="#1f5a85"/>
<polygon points="2550.0,900.0 2700.0,975.0 2700.0,1125.0 2550.0,1200.0 2400.0,1125.0 2400.0,975.0" fill="#1f5a85"/>
<polygon points="2700.0,1125.0 2850.0,1200.0 2850.0,1350.0 2700.0,1425.0 2550.0,1350.0 2550.0,1200.0" fill="#1f5a85"/>
<polygon points="2550.0,1350.0 2700.0,1425.0 2700.0,1575.0 2550.0,1650.0 2400.0,1575.0 2400.0,1425.0" fill="#a8c878"/>
<polygon points="2700.0,1575.0 2850.0,1650.0 2850.0,1800.0 2700.0,1875.0 2550.0,1800.0 2550.0,1650.0" fill="#a8c878"/>
<polygon points="2550.0,1800.0 2700.0,1875.0 2700.0,2025.0 2550.0,2100.0 2400.0,2025.0 2400.0,1875.0" fill="#1f5a85"/>
<polygon points="2700.0,2025.0 2850.0,2100.0 2850.0,2250.0 2700.0,2325.0 2550.0,2250.0 2550.0,2100.0" fill="#1f5a85"/>
<polygon points="2550.0,2250.0 2700.0,2325.0 2700.0,2475.0 2550.0,2550.0 2400.0,2475.0 2400.0,2325.0" fill="#1f5a85"/>
<polygon points="2700.0,2475.0 2850.0,2550.0 2850.0,2700.0 2700.0,2775.0 2550.0,2700.0 2550.0,2550.0" fill="#1f5a85"/>
<polygon points="2850.0,0.0 3000.0,75.0 3000.0,225.0 2850.0,300.0 2700.0,225.0 2700.0,75.0" fill="#1f5a85"/>
<polygon points="3000.0,225.0 3150.0,300.0 3150.0,450.0 3000.0,525.0 2850.0,450.0 2850.0,300.0" fill="#1f5a85"/>
<polygon points="2850.0,450.0 3000.0,525.0 3000.0,675.0 2850.0,750.0 2700.0,675.0 2700.0,525.0" fill="#1f5a85"/>
<polygon points="3000.0,675.0 3150.0,750.0 3150.0,900.0 3000.0,975.0 2850.0,900.0 2850.0,750.0" fill="#1f5a85"/>
<polygon points="2850.0,900.0 3000.0,975.0 3000.0,1125.0 2850.0,1200.0 2700.0,1125.0 2700.0,975.0" fill="#1f5a85"/>
<polygon points="3000.0,1125.0 3150.0,1200.0 3150.0,1350.0 3000.0,1425.0 2850.0,1350.0 2850.0,1200.0" fill="#1f5a85"/>
<polygon points="2850.0,1350.0 3000.0,1425.0 3000.0,1575.0 2850.0,1650.0 2700.0,1575.0 2700.0,1425.0" fill="#1f5a85"/>
<polygon points="3000.0,1575.0 3150.0,1650.0 3150.0,1800.0 3000.0,1875.0 2850.0,1800.0 2850.0,1650.0" fill="#1f5a85"/>
<polygon points="2850.0,1800.0 3000.0,1875.0 3000.0,2025.0 2850.0,2100.0 2700.0,2025.0 2700.0,1875.0" fill="#1f5a85"/>
<polygon points="3000.0,2025.0 3150.0,2100.0 3150.0,2250.0 3000.0,2325.0 2850.0,2250.0 2850.0,2100.0" fill="#1f5a85"/>
<polygon points="2850.0,2250.0 3000.0,2325.0 3000.0,2475.0 2850.0,2550.0 2700.0,2475.0 2700.0,2325.0" fill="#1f5a85"/>
<polygon points="3000.0,2475.0 3150.0,2550.0 3150.0,2700.0 3000.0,2775.0 2850.0,2700.0 2850.0,2550.0" fill="#1f5a85"/>
</g>
<g id="polar-overlay">
<polygon points="150.0,0.0 300.0,75.0 300.0,225.0 150.0,300.0 0.0,225.0 0.0,75.0" fill="#f4faff" opacity="0.85"/>
<polygon points="450.0,0.0 600.0,75.0 600.0,225.0 450.0,300.0 300.0,225.0 300.0,75.0" fill="#f4faff" opacity="0.85"/>
<polygon points="600.0,225.0 750.0,300.0 750.0,450.0 600.0,525.0 450.0,450.0 450.0,300.0" fill="#f4faff" opacity="0.85"/>
<polygon points="750.0,0.0 900.0,75.0 900.0,225.0 750.0,300.0 600.0,225.0 600.0,75.0" fill="#f4faff" opacity="0.85"/>
<polygon points="1050.0,0.0 1200.0,75.0 1200.0,225.0 1050.0,300.0 900.0,225.0 900.0,75.0" fill="#f4faff" opacity="0.85"/>
<polygon points="1200.0,225.0 1350.0,300.0 1350.0,450.0 1200.0,525.0 1050.0,450.0 1050.0,300.0" fill="#f4faff" opacity="0.85"/>
<polygon points="1350.0,0.0 1500.0,75.0 1500.0,225.0 1350.0,300.0 1200.0,225.0 1200.0,75.0" fill="#f4faff" opacity="0.85"/>
<polygon points="1500.0,225.0 1650.0,300.0 1650.0,450.0 1500.0,525.0 1350.0,450.0 1350.0,300.0" fill="#f4faff" opacity="0.85"/>
<polygon points="1500.0,2475.0 1650.0,2550.0 1650.0,2700.0 1500.0,2775.0 1350.0,2700.0 1350.0,2550.0" fill="#f4faff" opacity="0.85"/>
<polygon points="1650.0,0.0 1800.0,75.0 1800.0,225.0 1650.0,300.0 1500.0,225.0 1500.0,75.0" fill="#f4faff" opacity="0.85"/>
<polygon points="1800.0,225.0 1950.0,300.0 1950.0,450.0 1800.0,525.0 1650.0,450.0 1650.0,300.0" fill="#f4faff" opacity="0.85"/>
<polygon points="1800.0,2475.0 1950.0,2550.0 1950.0,2700.0 1800.0,2775.0 1650.0,2700.0 1650.0,2550.0" fill="#f4faff" opacity="0.85"/>
<polygon points="1950.0,0.0 2100.0,75.0 2100.0,225.0 1950.0,300.0 1800.0,225.0 1800.0,75.0" fill="#f4faff" opacity="0.85"/>
<polygon points="2100.0,225.0 2250.0,300.0 2250.0,450.0 2100.0,525.0 1950.0,450.0 1950.0,300.0" fill="#f4faff" opacity="0.85"/>
<polygon points="2250.0,0.0 2400.0,75.0 2400.0,225.0 2250.0,300.0 2100.0,225.0 2100.0,75.0" fill="#f4faff" opacity="0.85"/>
<polygon points="2400.0,225.0 2550.0,300.0 2550.0,450.0 2400.0,525.0 2250.0,450.0 2250.0,300.0" fill="#f4faff" opacity="0.85"/>
<polygon points="2550.0,0.0 2700.0,75.0 2700.0,225.0 2550.0,300.0 2400.0,225.0 2400.0,75.0" fill="#f4faff" opacity="0.85"/>
<polygon points="2700.0,225.0 2850.0,300.0 2850.0,450.0 2700.0,525.0 2550.0,450.0 2550.0,300.0" fill="#f4faff" opacity="0.85"/>
<polygon points="2700.0,2475.0 2850.0,2550.0 2850.0,2700.0 2700.0,2775.0 2550.0,2700.0 2550.0,2550.0" fill="#f4faff" opacity="0.85"/>
<polygon points="2850.0,0.0 3000.0,75.0 3000.0,225.0 2850.0,300.0 2700.0,225.0 2700.0,75.0" fill="#f4faff" opacity="0.85"/>
<polygon points="3000.0,225.0 3150.0,300.0 3150.0,450.0 3000.0,525.0 2850.0,450.0 2850.0,300.0" fill="#f4faff" opacity="0.85"/>
</g>
<g id="hex-grid" stroke="rgba(0,0,0,0.1)" stroke-width="2" fill="none">
<polygon points="150.0,0.0 300.0,75.0 300.0,225.0 150.0,300.0 0.0,225.0 0.0,75.0"/>
<polygon points="300.0,225.0 450.0,300.0 450.0,450.0 300.0,525.0 150.0,450.0 150.0,300.0"/>
<polygon points="150.0,450.0 300.0,525.0 300.0,675.0 150.0,750.0 0.0,675.0 0.0,525.0"/>
<polygon points="300.0,675.0 450.0,750.0 450.0,900.0 300.0,975.0 150.0,900.0 150.0,750.0"/>
<polygon points="150.0,900.0 300.0,975.0 300.0,1125.0 150.0,1200.0 0.0,1125.0 0.0,975.0"/>
<polygon points="300.0,1125.0 450.0,1200.0 450.0,1350.0 300.0,1425.0 150.0,1350.0 150.0,1200.0"/>
<polygon points="150.0,1350.0 300.0,1425.0 300.0,1575.0 150.0,1650.0 0.0,1575.0 0.0,1425.0"/>
<polygon points="300.0,1575.0 450.0,1650.0 450.0,1800.0 300.0,1875.0 150.0,1800.0 150.0,1650.0"/>
<polygon points="150.0,1800.0 300.0,1875.0 300.0,2025.0 150.0,2100.0 0.0,2025.0 0.0,1875.0"/>
<polygon points="300.0,2025.0 450.0,2100.0 450.0,2250.0 300.0,2325.0 150.0,2250.0 150.0,2100.0"/>
<polygon points="150.0,2250.0 300.0,2325.0 300.0,2475.0 150.0,2550.0 0.0,2475.0 0.0,2325.0"/>
<polygon points="300.0,2475.0 450.0,2550.0 450.0,2700.0 300.0,2775.0 150.0,2700.0 150.0,2550.0"/>
<polygon points="450.0,0.0 600.0,75.0 600.0,225.0 450.0,300.0 300.0,225.0 300.0,75.0"/>
<polygon points="600.0,225.0 750.0,300.0 750.0,450.0 600.0,525.0 450.0,450.0 450.0,300.0"/>
<polygon points="450.0,450.0 600.0,525.0 600.0,675.0 450.0,750.0 300.0,675.0 300.0,525.0"/>
<polygon points="600.0,675.0 750.0,750.0 750.0,900.0 600.0,975.0 450.0,900.0 450.0,750.0"/>
<polygon points="450.0,900.0 600.0,975.0 600.0,1125.0 450.0,1200.0 300.0,1125.0 300.0,975.0"/>
<polygon points="600.0,1125.0 750.0,1200.0 750.0,1350.0 600.0,1425.0 450.0,1350.0 450.0,1200.0"/>
<polygon points="450.0,1350.0 600.0,1425.0 600.0,1575.0 450.0,1650.0 300.0,1575.0 300.0,1425.0"/>
<polygon points="600.0,1575.0 750.0,1650.0 750.0,1800.0 600.0,1875.0 450.0,1800.0 450.0,1650.0"/>
<polygon points="450.0,1800.0 600.0,1875.0 600.0,2025.0 450.0,2100.0 300.0,2025.0 300.0,1875.0"/>
<polygon points="600.0,2025.0 750.0,2100.0 750.0,2250.0 600.0,2325.0 450.0,2250.0 450.0,2100.0"/>
<polygon points="450.0,2250.0 600.0,2325.0 600.0,2475.0 450.0,2550.0 300.0,2475.0 300.0,2325.0"/>
<polygon points="600.0,2475.0 750.0,2550.0 750.0,2700.0 600.0,2775.0 450.0,2700.0 450.0,2550.0"/>
<polygon points="750.0,0.0 900.0,75.0 900.0,225.0 750.0,300.0 600.0,225.0 600.0,75.0"/>
<polygon points="900.0,225.0 1050.0,300.0 1050.0,450.0 900.0,525.0 750.0,450.0 750.0,300.0"/>
<polygon points="750.0,450.0 900.0,525.0 900.0,675.0 750.0,750.0 600.0,675.0 600.0,525.0"/>
<polygon points="900.0,675.0 1050.0,750.0 1050.0,900.0 900.0,975.0 750.0,900.0 750.0,750.0"/>
<polygon points="750.0,900.0 900.0,975.0 900.0,1125.0 750.0,1200.0 600.0,1125.0 600.0,975.0"/>
<polygon points="900.0,1125.0 1050.0,1200.0 1050.0,1350.0 900.0,1425.0 750.0,1350.0 750.0,1200.0"/>
<polygon points="750.0,1350.0 900.0,1425.0 900.0,1575.0 750.0,1650.0 600.0,1575.0 600.0,1425.0"/>
<polygon points="900.0,1575.0 1050.0,1650.0 1050.0,1800.0 900.0,1875.0 750.0,1800.0 750.0,1650.0"/>
<polygon points="750.0,1800.0 900.0,1875.0 900.0,2025.0 750.0,2100.0 600.0,2025.0 600.0,1875.0"/>
<polygon points="900.0,2025.0 1050.0,2100.0 1050.0,2250.0 900.0,2325.0 750.0,2250.0 750.0,2100.0"/>
<polygon points="750.0,2250.0 900.0,2325.0 900.0,2475.0 750.0,2550.0 600.0,2475.0 600.0,2325.0"/>
<polygon points="900.0,2475.0 1050.0,2550.0 1050.0,2700.0 900.0,2775.0 750.0,2700.0 750.0,2550.0"/>
<polygon points="1050.0,0.0 1200.0,75.0 1200.0,225.0 1050.0,300.0 900.0,225.0 900.0,75.0"/>
<polygon points="1200.0,225.0 1350.0,300.0 1350.0,450.0 1200.0,525.0 1050.0,450.0 1050.0,300.0"/>
<polygon points="1050.0,450.0 1200.0,525.0 1200.0,675.0 1050.0,750.0 900.0,675.0 900.0,525.0"/>
<polygon points="1200.0,675.0 1350.0,750.0 1350.0,900.0 1200.0,975.0 1050.0,900.0 1050.0,750.0"/>
<polygon points="1050.0,900.0 1200.0,975.0 1200.0,1125.0 1050.0,1200.0 900.0,1125.0 900.0,975.0"/>
<polygon points="1200.0,1125.0 1350.0,1200.0 1350.0,1350.0 1200.0,1425.0 1050.0,1350.0 1050.0,1200.0"/>
<polygon points="1050.0,1350.0 1200.0,1425.0 1200.0,1575.0 1050.0,1650.0 900.0,1575.0 900.0,1425.0"/>
<polygon points="1200.0,1575.0 1350.0,1650.0 1350.0,1800.0 1200.0,1875.0 1050.0,1800.0 1050.0,1650.0"/>
<polygon points="1050.0,1800.0 1200.0,1875.0 1200.0,2025.0 1050.0,2100.0 900.0,2025.0 900.0,1875.0"/>
<polygon points="1200.0,2025.0 1350.0,2100.0 1350.0,2250.0 1200.0,2325.0 1050.0,2250.0 1050.0,2100.0"/>
<polygon points="1050.0,2250.0 1200.0,2325.0 1200.0,2475.0 1050.0,2550.0 900.0,2475.0 900.0,2325.0"/>
<polygon points="1200.0,2475.0 1350.0,2550.0 1350.0,2700.0 1200.0,2775.0 1050.0,2700.0 1050.0,2550.0"/>
<polygon points="1350.0,0.0 1500.0,75.0 1500.0,225.0 1350.0,300.0 1200.0,225.0 1200.0,75.0"/>
<polygon points="1500.0,225.0 1650.0,300.0 1650.0,450.0 1500.0,525.0 1350.0,450.0 1350.0,300.0"/>
<polygon points="1350.0,450.0 1500.0,525.0 1500.0,675.0 1350.0,750.0 1200.0,675.0 1200.0,525.0"/>
<polygon points="1500.0,675.0 1650.0,750.0 1650.0,900.0 1500.0,975.0 1350.0,900.0 1350.0,750.0"/>
<polygon points="1350.0,900.0 1500.0,975.0 1500.0,1125.0 1350.0,1200.0 1200.0,1125.0 1200.0,975.0"/>
<polygon points="1500.0,1125.0 1650.0,1200.0 1650.0,1350.0 1500.0,1425.0 1350.0,1350.0 1350.0,1200.0"/>
<polygon points="1350.0,1350.0 1500.0,1425.0 1500.0,1575.0 1350.0,1650.0 1200.0,1575.0 1200.0,1425.0"/>
<polygon points="1500.0,1575.0 1650.0,1650.0 1650.0,1800.0 1500.0,1875.0 1350.0,1800.0 1350.0,1650.0"/>
<polygon points="1350.0,1800.0 1500.0,1875.0 1500.0,2025.0 1350.0,2100.0 1200.0,2025.0 1200.0,1875.0"/>
<polygon points="1500.0,2025.0 1650.0,2100.0 1650.0,2250.0 1500.0,2325.0 1350.0,2250.0 1350.0,2100.0"/>
<polygon points="1350.0,2250.0 1500.0,2325.0 1500.0,2475.0 1350.0,2550.0 1200.0,2475.0 1200.0,2325.0"/>
<polygon points="1500.0,2475.0 1650.0,2550.0 1650.0,2700.0 1500.0,2775.0 1350.0,2700.0 1350.0,2550.0"/>
<polygon points="1650.0,0.0 1800.0,75.0 1800.0,225.0 1650.0,300.0 1500.0,225.0 1500.0,75.0"/>
<polygon points="1800.0,225.0 1950.0,300.0 1950.0,450.0 1800.0,525.0 1650.0,450.0 1650.0,300.0"/>
<polygon points="1650.0,450.0 1800.0,525.0 1800.0,675.0 1650.0,750.0 1500.0,675.0 1500.0,525.0"/>
<polygon points="1800.0,675.0 1950.0,750.0 1950.0,900.0 1800.0,975.0 1650.0,900.0 1650.0,750.0"/>
<polygon points="1650.0,900.0 1800.0,975.0 1800.0,1125.0 1650.0,1200.0 1500.0,1125.0 1500.0,975.0"/>
<polygon points="1800.0,1125.0 1950.0,1200.0 1950.0,1350.0 1800.0,1425.0 1650.0,1350.0 1650.0,1200.0"/>
<polygon points="1650.0,1350.0 1800.0,1425.0 1800.0,1575.0 1650.0,1650.0 1500.0,1575.0 1500.0,1425.0"/>
<polygon points="1800.0,1575.0 1950.0,1650.0 1950.0,1800.0 1800.0,1875.0 1650.0,1800.0 1650.0,1650.0"/>
<polygon points="1650.0,1800.0 1800.0,1875.0 1800.0,2025.0 1650.0,2100.0 1500.0,2025.0 1500.0,1875.0"/>
<polygon points="1800.0,2025.0 1950.0,2100.0 1950.0,2250.0 1800.0,2325.0 1650.0,2250.0 1650.0,2100.0"/>
<polygon points="1650.0,2250.0 1800.0,2325.0 1800.0,2475.0 1650.0,2550.0 1500.0,2475.0 1500.0,2325.0"/>
<polygon points="1800.0,2475.0 1950.0,2550.0 1950.0,2700.0 1800.0,2775.0 1650.0,2700.0 1650.0,2550.0"/>
<polygon points="1950.0,0.0 2100.0,75.0 2100.0,225.0 1950.0,300.0 1800.0,225.0 1800.0,75.0"/>
<polygon points="2100.0,225.0 2250.0,300.0 2250.0,450.0 2100.0,525.0 1950.0,450.0 1950.0,300.0"/>
<polygon points="1950.0,450.0 2100.0,525.0 2100.0,675.0 1950.0,750.0 1800.0,675.0 1800.0,525.0"/>
<polygon points="2100.0,675.0 2250.0,750.0 2250.0,900.0 2100.0,975.0 1950.0,900.0 1950.0,750.0"/>
<polygon points="1950.0,900.0 2100.0,975.0 2100.0,1125.0 1950.0,1200.0 1800.0,1125.0 1800.0,975.0"/>
<polygon points="2100.0,1125.0 2250.0,1200.0 2250.0,1350.0 2100.0,1425.0 1950.0,1350.0 1950.0,1200.0"/>
<polygon points="1950.0,1350.0 2100.0,1425.0 2100.0,1575.0 1950.0,1650.0 1800.0,1575.0 1800.0,1425.0"/>
<polygon points="2100.0,1575.0 2250.0,1650.0 2250.0,1800.0 2100.0,1875.0 1950.0,1800.0 1950.0,1650.0"/>
<polygon points="1950.0,1800.0 2100.0,1875.0 2100.0,2025.0 1950.0,2100.0 1800.0,2025.0 1800.0,1875.0"/>
<polygon points="2100.0,2025.0 2250.0,2100.0 2250.0,2250.0 2100.0,2325.0 1950.0,2250.0 1950.0,2100.0"/>
<polygon points="1950.0,2250.0 2100.0,2325.0 2100.0,2475.0 1950.0,2550.0 1800.0,2475.0 1800.0,2325.0"/>
<polygon points="2100.0,2475.0 2250.0,2550.0 2250.0,2700.0 2100.0,2775.0 1950.0,2700.0 1950.0,2550.0"/>
<polygon points="2250.0,0.0 2400.0,75.0 2400.0,225.0 2250.0,300.0 2100.0,225.0 2100.0,75.0"/>
<polygon points="2400.0,225.0 2550.0,300.0 2550.0,450.0 2400.0,525.0 2250.0,450.0 2250.0,300.0"/>
<polygon points="2250.0,450.0 2400.0,525.0 2400.0,675.0 2250.0,750.0 2100.0,675.0 2100.0,525.0"/>
<polygon points="2400.0,675.0 2550.0,750.0 2550.0,900.0 2400.0,975.0 2250.0,900.0 2250.0,750.0"/>
<polygon points="2250.0,900.0 2400.0,975.0 2400.0,1125.0 2250.0,1200.0 2100.0,1125.0 2100.0,975.0"/>
<polygon points="2400.0,1125.0 2550.0,1200.0 2550.0,1350.0 2400.0,1425.0 2250.0,1350.0 2250.0,1200.0"/>
<polygon points="2250.0,1350.0 2400.0,1425.0 2400.0,1575.0 2250.0,1650.0 2100.0,1575.0 2100.0,1425.0"/>
<polygon points="2400.0,1575.0 2550.0,1650.0 2550.0,1800.0 2400.0,1875.0 2250.0,1800.0 2250.0,1650.0"/>
<polygon points="2250.0,1800.0 2400.0,1875.0 2400.0,2025.0 2250.0,2100.0 2100.0,2025.0 2100.0,1875.0"/>
<polygon points="2400.0,2025.0 2550.0,2100.0 2550.0,2250.0 2400.0,2325.0 2250.0,2250.0 2250.0,2100.0"/>
<polygon points="2250.0,2250.0 2400.0,2325.0 2400.0,2475.0 2250.0,2550.0 2100.0,2475.0 2100.0,2325.0"/>
<polygon points="2400.0,2475.0 2550.0,2550.0 2550.0,2700.0 2400.0,2775.0 2250.0,2700.0 2250.0,2550.0"/>
<polygon points="2550.0,0.0 2700.0,75.0 2700.0,225.0 2550.0,300.0 2400.0,225.0 2400.0,75.0"/>
<polygon points="2700.0,225.0 2850.0,300.0 2850.0,450.0 2700.0,525.0 2550.0,450.0 2550.0,300.0"/>
<polygon points="2550.0,450.0 2700.0,525.0 2700.0,675.0 2550.0,750.0 2400.0,675.0 2400.0,525.0"/>
<polygon points="2700.0,675.0 2850.0,750.0 2850.0,900.0 2700.0,975.0 2550.0,900.0 2550.0,750.0"/>
<polygon points="2550.0,900.0 2700.0,975.0 2700.0,1125.0 2550.0,1200.0 2400.0,1125.0 2400.0,975.0"/>
<polygon points="2700.0,1125.0 2850.0,1200.0 2850.0,1350.0 2700.0,1425.0 2550.0,1350.0 2550.0,1200.0"/>
<polygon points="2550.0,1350.0 2700.0,1425.0 2700.0,1575.0 2550.0,1650.0 2400.0,1575.0 2400.0,1425.0"/>
<polygon points="2700.0,1575.0 2850.0,1650.0 2850.0,1800.0 2700.0,1875.0 2550.0,1800.0 2550.0,1650.0"/>
<polygon points="2550.0,1800.0 2700.0,1875.0 2700.0,2025.0 2550.0,2100.0 2400.0,2025.0 2400.0,1875.0"/>
<polygon points="2700.0,2025.0 2850.0,2100.0 2850.0,2250.0 2700.0,2325.0 2550.0,2250.0 2550.0,2100.0"/>
<polygon points="2550.0,2250.0 2700.0,2325.0 2700.0,2475.0 2550.0,2550.0 2400.0,2475.0 2400.0,2325.0"/>
<polygon points="2700.0,2475.0 2850.0,2550.0 2850.0,2700.0 2700.0,2775.0 2550.0,2700.0 2550.0,2550.0"/>
<polygon points="2850.0,0.0 3000.0,75.0 3000.0,225.0 2850.0,300.0 2700.0,225.0 2700.0,75.0"/>
<polygon points="3000.0,225.0 3150.0,300.0 3150.0,450.0 3000.0,525.0 2850.0,450.0 2850.0,300.0"/>
<polygon points="2850.0,450.0 3000.0,525.0 3000.0,675.0 2850.0,750.0 2700.0,675.0 2700.0,525.0"/>
<polygon points="3000.0,675.0 3150.0,750.0 3150.0,900.0 3000.0,975.0 2850.0,900.0 2850.0,750.0"/>
<polygon points="2850.0,900.0 3000.0,975.0 3000.0,1125.0 2850.0,1200.0 2700.0,1125.0 2700.0,975.0"/>
<polygon points="3000.0,1125.0 3150.0,1200.0 3150.0,1350.0 3000.0,1425.0 2850.0,1350.0 2850.0,1200.0"/>
<polygon points="2850.0,1350.0 3000.0,1425.0 3000.0,1575.0 2850.0,1650.0 2700.0,1575.0 2700.0,1425.0"/>
<polygon points="3000.0,1575.0 3150.0,1650.0 3150.0,1800.0 3000.0,1875.0 2850.0,1800.0 2850.0,1650.0"/>
<polygon points="2850.0,1800.0 3000.0,1875.0 3000.0,2025.0 2850.0,2100.0 2700.0,2025.0 2700.0,1875.0"/>
<polygon points="3000.0,2025.0 3150.0,2100.0 3150.0,2250.0 3000.0,2325.0 2850.0,2250.0 2850.0,2100.0"/>
<polygon points="2850.0,2250.0 3000.0,2325.0 3000.0,2475.0 2850.0,2550.0 2700.0,2475.0 2700.0,2325.0"/>
<polygon points="3000.0,2475.0 3150.0,2550.0 3150.0,2700.0 3000.0,2775.0 2850.0,2700.0 2850.0,2550.0"/>
</g>
<g id="shapes">
<path d="M 374.88,2359.73 C 578.94,1738.42 585.12,1738.42 980.88,1872.33 C 1364.26,2049.08 1345.71,1524.18 1135.47,1122.47 C 560.39,1026.06 554.21,667.19 1172.57,613.63" fill="none" stroke="#3a6a8a" stroke-width="42" stroke-linecap="round" opacity="0.55"/>
<path d="M 374.88,2359.73 C 578.94,1738.42 585.12,1738.42 980.88,1872.33 C 1364.26,2049.08 1345.71,1524.18 1135.47,1122.47 C 560.39,1026.06 554.21,667.19 1172.57,613.63" fill="none" stroke="#6fa9d3" stroke-width="26" stroke-linecap="round"/>
<path d="M 2013.55,2124.06 L 2001.18,1599.16 L 1630.16,1272.44 L 1797.12,902.86 L 1611.61,549.36" fill="none" stroke="#3a6a8a" stroke-width="42" stroke-linecap="round" opacity="0.55"/>
<path d="M 2013.55,2124.06 L 2001.18,1599.16 L 1630.16,1272.44 L 1797.12,902.86 L 1611.61,549.36" fill="none" stroke="#6fa9d3" stroke-width="26" stroke-linecap="round"/>
</g>
<g id="features">
</g>
</svg>